<?xml version="1.0" standalone="no"?>
<!DOCTYPE svg PUBLIC "-//W3C//DTD SVG 20010904//EN"
 "http://www.w3.org/TR/2001/REC-SVG-20010904/DTD/svg10.dtd">
<svg version="1.0" xmlns="http://www.w3.org/2000/svg"
 width="300.000000pt" height="152.000000pt" viewBox="0 0 300.000000 152.000000"
 preserveAspectRatio="xMidYMid meet">
<metadata>
Created by potrace 1.10, written by Peter Selinger 2001-2011
</metadata>
<g transform="translate(0.000000,152.000000) scale(0.100000,-0.100000)"
fill="#ffffff" stroke="none">
<path d="M10 758 c0 -499 3 -758 10 -758 7 0 10 257 10 751 l0 750 273 -5
c149 -2 811 -5 1470 -5 l1197 -1 0 -745 c0 -490 3 -745 10 -745 7 0 10 259 10
758 l0 757 -1490 0 -1490 0 0 -757z"/>
<path d="M1932 1228 c-18 -18 -15 -42 7 -62 37 -33 80 -3 67 47 -5 21 -12 27
-34 27 -15 0 -33 -5 -40 -12z m63 -33 c0 -22 -31 -33 -47 -17 -17 17 -1 44 24
40 15 -2 23 -10 23 -23z"/>
<path d="M1955 1201 c-7 -12 12 -24 25 -16 11 7 4 25 -10 25 -5 0 -11 -4 -15
-9z"/>
<path d="M2117 1103 c-51 -36 -91 -119 -84 -174 5 -39 4 -40 -21 -37 -26 3
-27 5 -30 83 -3 85 -12 105 -47 105 -37 0 -48 -25 -49 -112 l-1 -80 -63 -24
c-80 -30 -142 -72 -217 -149 -70 -71 -107 -134 -130 -224 -26 -101 3 -192 71
-225 47 -22 80 -20 139 8 128 60 222 221 265 451 18 101 20 105 37 105 9 0 36
-10 60 -22 41 -20 45 -21 60 -5 13 13 15 20 5 29 -19 19 -14 28 16 28 31 0
150 74 160 99 3 9 10 -3 16 -29 22 -87 94 -102 145 -29 19 27 37 40 67 48 23
6 49 13 58 17 12 5 16 0 16 -23 0 -36 25 -73 49 -73 21 0 81 57 81 77 0 20 18
16 25 -6 3 -10 15 -27 26 -37 30 -27 45 -3 53 83 7 69 6 74 -18 98 -29 29 -62
32 -96 8 -14 -10 -36 -19 -50 -20 -45 -4 -64 -8 -107 -22 -42 -14 -42 -14 -68
18 -22 26 -34 31 -69 31 -49 0 -66 -14 -91 -77 -18 -46 -29 -52 -43 -27 -8 14
-13 14 -50 -5 -48 -25 -52 -20 -17 21 29 35 32 78 7 101 -27 24 -62 21 -105
-10z m97 -12 c16 -18 16 -22 2 -49 -19 -36 -61 -69 -96 -73 -14 -2 -26 -12
-28 -21 -5 -27 42 -22 118 12 36 16 66 27 68 25 8 -8 -10 -25 -20 -19 -7 4 -8
2 -4 -4 4 -7 -3 -17 -18 -24 -14 -6 -26 -15 -26 -19 0 -15 -58 -39 -91 -39
-90 0 -91 113 -3 196 40 38 73 43 98 15z m580 -20 c14 -15 15 -30 10 -90 -4
-39 -11 -71 -15 -71 -17 0 -31 45 -26 87 4 36 2 42 -9 32 -8 -7 -14 -7 -14 -1
0 13 25 33 33 26 3 -3 3 -29 0 -58 -3 -31 -1 -56 4 -59 6 -4 13 17 16 51 5 44
2 60 -10 74 -21 23 -41 23 -39 1 0 -10 -4 -17 -10 -16 -7 1 -11 -5 -10 -15 1
-11 -7 -17 -21 -18 -13 -1 -23 5 -23 12 0 8 -6 14 -14 14 -17 0 -50 -104 -42
-127 10 -24 29 -10 70 50 21 32 41 55 43 53 3 -2 -13 -31 -34 -63 -66 -100
-114 -74 -78 42 20 63 27 70 53 56 15 -8 24 -5 40 14 26 30 53 32 76 6z m-325
-17 c11 -14 21 -30 24 -37 2 -8 21 -5 61 10 50 18 58 19 63 6 3 -8 0 -19 -8
-24 -20 -13 -118 -49 -132 -49 -7 0 -21 -14 -31 -30 -37 -63 -91 -75 -114 -24
-16 33 -15 53 3 88 8 15 15 33 15 39 0 23 34 47 66 47 23 0 38 -7 53 -26z
m-509 -8 c12 -16 4 -180 -10 -171 -3 2 -3 37 2 76 9 77 5 103 -14 97 -8 -3
-13 -34 -15 -92 -3 -94 -6 -106 -30 -106 -27 0 -136 -53 -189 -91 -195 -142
-274 -397 -144 -464 38 -19 56 -19 106 4 133 60 218 222 269 513 10 53 31 69
79 58 36 -8 86 -44 86 -62 0 -5 -13 1 -28 12 -17 12 -46 22 -72 23 l-44 2 -13
-65 c-50 -266 -136 -425 -263 -490 -121 -62 -224 37 -190 182 38 161 186 319
350 374 30 11 58 24 63 29 4 6 7 44 6 86 -1 42 1 81 5 88 10 15 31 14 46 -3z
m714 -71 c-4 -8 -8 -15 -10 -15 -2 0 -4 7 -4 15 0 8 4 15 10 15 5 0 7 -7 4
-15z m-764 -142 c0 -23 -33 -175 -47 -218 -56 -175 -175 -304 -280 -305 -51 0
-67 33 -60 124 3 41 12 89 21 107 28 58 109 156 165 201 82 64 201 118 201 91z"/>
<path d="M2119 1060 c-72 -76 -75 -170 -6 -170 28 0 127 51 127 66 0 2 -19 -5
-42 -15 -88 -37 -123 -34 -116 10 2 18 11 25 38 30 47 10 104 73 89 100 -16
30 -49 22 -90 -21z m71 11 c0 -12 -50 -44 -57 -37 -7 7 35 46 49 46 4 0 8 -4
8 -9z"/>
<path d="M2360 1023 c-21 -48 -28 -102 -15 -122 3 -6 19 -11 34 -11 22 0 34 9
54 38 19 30 37 42 79 56 49 16 111 45 97 46 -3 0 -32 -9 -64 -20 -74 -26 -75
-26 -75 10 0 32 -22 50 -64 50 -20 0 -29 -9 -46 -47z m87 21 c7 -20 -13 -64
-29 -64 -30 1 -41 16 -28 41 21 40 46 50 57 23z m-42 -78 c18 -13 17 -14 -8
-40 -29 -29 -47 -27 -47 4 0 48 21 61 55 36z"/>
<path d="M2407 1033 c-11 -10 -8 -43 3 -43 9 0 30 31 30 44 0 8 -25 7 -33 -1z"/>
<path d="M2365 949 c-9 -27 0 -35 20 -19 19 16 19 26 1 33 -9 4 -17 -2 -21
-14z"/>
<path d="M1832 805 c-113 -52 -226 -163 -271 -266 -29 -66 -38 -162 -17 -194
20 -30 46 -31 102 -6 109 49 197 198 234 396 6 33 14 68 16 78 7 22 -1 22 -64
-8z m38 -27 c0 -7 -9 -49 -20 -93 -41 -164 -129 -294 -224 -330 -62 -24 -76
-12 -76 64 0 95 78 222 184 300 87 64 136 86 136 59z"/>
<path d="M485 1104 c-16 -8 -37 -22 -46 -30 -13 -12 -21 -13 -43 -3 -34 16
-43 7 -61 -62 -20 -75 -19 -132 4 -160 16 -20 22 -22 44 -12 13 6 34 32 46 56
26 54 88 127 124 146 34 18 41 40 21 62 -21 23 -49 24 -89 3z m69 -10 c28 -11
17 -19 -25 -20 -34 -1 -46 -8 -83 -48 -24 -25 -46 -43 -50 -39 -10 10 -7 23 5
23 6 0 21 13 34 29 14 15 39 36 57 44 37 19 40 19 62 11z m-52 -71 c-27 -27
-64 -74 -82 -106 -35 -62 -56 -79 -71 -56 -19 30 -2 180 23 195 11 7 38 -14
38 -30 0 -6 -7 -3 -14 7 -7 9 -15 17 -18 17 -8 0 -30 -133 -27 -159 5 -34 27
-38 39 -6 16 43 69 118 109 152 56 51 59 39 3 -14z m-109 -78 c-7 -21 -13 -19
-13 6 0 11 4 18 10 14 5 -3 7 -12 3 -20z"/>
<path d="M1416 1089 c-15 -11 -33 -18 -41 -15 -19 7 -51 -10 -111 -60 -46 -38
-85 -64 -98 -64 -3 0 -6 12 -6 28 -1 15 -13 45 -28 67 -23 33 -35 41 -64 43
-22 2 -47 -3 -61 -13 -13 -8 -32 -13 -41 -9 -18 7 -57 -15 -96 -53 -13 -14
-32 -29 -42 -34 -16 -9 -18 -4 -18 46 0 49 -3 57 -25 67 -22 10 -29 7 -72 -33
-46 -42 -47 -43 -53 -20 -8 35 -36 50 -55 30 -25 -25 -46 -116 -33 -144 22
-49 73 -49 126 -2 l22 20 0 -27 c0 -20 -17 -46 -61 -94 -125 -135 -197 -244
-252 -379 -36 -89 -42 -134 -23 -191 47 -142 173 -145 269 -6 66 93 130 324
143 512 5 69 7 75 41 105 62 55 73 61 73 40 0 -10 7 -29 16 -41 22 -32 71 -29
114 8 43 36 44 36 58 5 18 -38 73 -34 141 10 l53 35 20 -25 c28 -35 52 -31 89
15 37 45 45 48 54 20 8 -26 43 -46 57 -32 6 6 12 28 13 49 1 21 5 53 9 70 7
28 3 37 -22 63 -36 35 -60 38 -96 9z m78 -12 c18 -13 19 -24 15 -110 -2 -53
-10 -64 -29 -42 -13 16 -18 120 -7 132 4 3 7 -20 7 -53 0 -84 15 -95 17 -13 2
59 0 70 -17 79 -25 14 -28 13 -26 -7 0 -10 -6 -18 -14 -18 -8 -1 -14 -6 -13
-12 1 -6 -4 -17 -13 -24 -13 -10 -16 -9 -21 10 -10 39 -37 20 -52 -36 -15 -57
-10 -89 13 -76 20 11 88 112 82 122 -3 4 1 8 9 8 12 0 11 -7 -5 -31 -10 -17
-28 -48 -39 -68 -21 -37 -51 -55 -72 -42 -15 9 -5 93 16 134 14 26 18 29 36
20 17 -9 23 -7 40 14 23 29 46 33 73 13z m-705 -10 c7 -9 8 -38 4 -83 -6 -67
-5 -69 13 -53 142 119 145 121 165 103 17 -16 19 -16 25 0 19 50 107 52 120 2
3 -13 13 -27 21 -30 11 -5 13 -15 8 -46 -6 -35 -4 -40 13 -40 24 0 84 40 135
88 39 38 47 31 23 -17 -19 -35 -75 -85 -125 -110 -47 -24 -84 -11 -89 32 -2
15 -6 27 -9 27 -3 0 -25 -18 -49 -40 -46 -42 -82 -51 -104 -25 -16 19 -7 68
20 105 38 53 20 42 -80 -50 l-100 -93 0 -51 c0 -78 -36 -267 -70 -373 -64
-195 -158 -286 -249 -239 -17 9 -31 22 -31 28 0 7 7 5 18 -4 44 -38 103 -26
156 32 39 44 44 57 21 57 -14 0 -19 -10 -16 -30 1 -5 -2 -6 -7 -3 -5 3 -19 -6
-32 -19 -33 -35 -83 -50 -112 -33 -13 7 -27 12 -33 13 -18 0 -37 78 -31 124
15 111 146 326 297 486 41 44 47 57 53 108 3 31 3 57 -2 57 -4 0 -24 -16 -43
-36 -56 -58 -87 -65 -109 -25 -10 19 4 97 22 118 19 23 41 -5 35 -44 l-6 -34
37 30 c20 16 48 41 61 55 28 30 34 31 50 13z m591 -84 c0 -5 -5 -15 -10 -23
-8 -12 -10 -11 -10 8 0 12 5 22 10 22 6 0 10 -3 10 -7z"/>
<path d="M706 1008 c-73 -61 -91 -70 -82 -40 15 49 17 70 7 76 -13 8 -34 -61
-29 -94 5 -41 37 -35 95 15 28 25 54 45 57 45 11 0 6 -84 -8 -142 -8 -34 -9
-61 -4 -66 11 -11 -14 -194 -42 -303 -10 -41 -15 -78 -10 -82 16 -17 61 193
79 371 6 52 16 101 23 110 9 11 9 14 1 9 -9 -6 -13 14 -15 76 l-3 84 -69 -59z"/>
<path d="M999 1018 c-62 -85 -73 -148 -26 -148 12 0 45 20 74 45 28 25 56 45
62 45 5 0 11 -17 13 -37 2 -30 8 -39 24 -41 32 -5 119 55 149 102 l27 41 -38
-41 c-42 -44 -84 -70 -124 -75 -23 -4 -25 -1 -25 41 0 34 -4 45 -17 48 -10 2
-18 15 -20 30 -2 22 -9 28 -35 30 -28 3 -36 -3 -64 -40z m79 -14 c-3 -28 -92
-113 -105 -101 -9 10 11 50 47 91 39 43 63 48 58 10z"/>
<path d="M1048 1009 c-18 -10 -63 -77 -56 -84 7 -8 81 73 77 83 -3 7 -10 7
-21 1z"/>
<path d="M877 975 c-37 -31 -67 -58 -67 -61 0 -3 25 15 56 40 31 26 59 44 64
41 4 -2 15 4 25 15 38 42 -12 20 -78 -35z"/>
<path d="M899 963 c-13 -16 -12 -17 4 -4 9 7 17 15 17 17 0 8 -8 3 -21 -13z"/>
<path d="M829 903 c-13 -16 -12 -17 4 -4 9 7 17 15 17 17 0 8 -8 3 -21 -13z"/>
<path d="M645 754 c-153 -180 -257 -384 -240 -471 5 -27 9 -33 16 -22 5 8 9
25 9 39 1 22 21 89 45 144 6 15 5 17 -5 11 -8 -5 -11 -3 -8 6 3 8 11 13 18 11
8 -2 10 3 6 13 -4 11 -2 14 6 9 8 -5 9 -2 5 10 -4 10 -3 15 3 11 6 -3 11 0 11
7 1 7 2 20 3 28 0 8 7 14 14 12 8 -1 11 2 6 9 -5 8 -3 9 6 4 10 -6 12 -4 7 9
-5 11 -3 15 5 10 6 -4 8 -3 5 4 -4 5 -4 18 -1 27 6 13 9 14 16 3 8 -10 9 -9 4
4 -5 17 9 35 17 21 2 -5 2 -2 0 5 -4 16 34 72 48 72 6 0 7 -6 3 -12 -5 -9 -2
-9 9 1 18 15 23 26 7 16 -5 -3 -10 -1 -10 5 0 7 7 10 15 6 8 -3 16 -1 16 4 1
6 3 15 4 20 1 6 3 13 4 17 0 4 6 2 13 -5 9 -9 0 -25 -39 -69 -107 -124 -201
-297 -218 -403 -4 -25 -12 -53 -17 -64 -7 -12 -7 -16 0 -12 5 3 15 -1 22 -9
22 -27 67 -18 111 22 79 72 125 201 164 461 11 80 10 87 -17 83 -13 -2 -9 11
9 31 9 10 14 20 12 22 -3 3 -40 -38 -84 -90z m59 -56 c-43 -257 -101 -408
-175 -452 -98 -58 -87 95 20 272 44 72 147 212 157 212 2 0 1 -15 -2 -32z"/>
<path d="M660 375 c-5 -14 -16 -38 -24 -53 -13 -26 -13 -29 1 -29 13 0 53 73
53 98 0 19 -21 8 -30 -16z"/>
</g>
</svg>
