<?xml version="1.0" standalone="no"?>
<!DOCTYPE svg PUBLIC "-//W3C//DTD SVG 20010904//EN"
 "http://www.w3.org/TR/2001/REC-SVG-20010904/DTD/svg10.dtd">
<svg version="1.0" xmlns="http://www.w3.org/2000/svg"
 width="470.000000pt" height="258.000000pt" viewBox="0 0 470.000000 258.000000"
 preserveAspectRatio="xMidYMid meet">
<metadata>
Created by potrace 1.10, written by Peter Selinger 2001-2011
</metadata>
<g transform="translate(0.000000,258.000000) scale(0.100000,-0.100000)"
fill="#000000" stroke="none">
<path d="M20 1345 l0 -1235 2235 0 2235 0 0 1235 0 1235 -2235 0 -2235 0 0
-1235z m2930 7 c0 -24 -19 -42 -36 -35 -15 5 -19 35 -7 46 14 14 43 7 43 -11z
m-2546 -101 c12 -19 -6 -43 -29 -37 -12 3 -25 3 -28 -1 -14 -13 17 -33 50 -33
37 0 49 -16 39 -53 -3 -12 -49 -71 -101 -131 -52 -60 -95 -115 -95 -123 0 -37
97 15 235 126 87 70 203 155 232 170 34 17 73 14 74 -6 5 -70 -11 -97 -116
-204 -73 -75 -85 -99 -46 -99 39 0 199 112 358 249 55 48 90 71 107 71 14 0
26 -4 26 -9 0 -7 -179 -217 -263 -309 l-22 -23 30 11 c89 34 207 113 330 221
77 67 152 102 232 107 59 4 63 3 74 -22 l12 -26 28 25 c20 20 35 26 60 23 l34
-3 -96 -110 c-156 -181 -177 -214 -123 -201 38 10 124 71 234 166 130 112 191
152 226 148 50 -5 46 -57 -11 -131 -19 -25 -35 -48 -35 -51 0 -4 37 23 83 59
139 111 256 156 272 105 15 -48 -6 -84 -102 -177 -71 -68 -94 -96 -89 -108 15
-41 103 6 246 129 85 74 110 81 30 9 -129 -116 -210 -167 -257 -161 -76 9 -52
89 63 204 46 46 84 91 84 99 0 57 -193 -59 -387 -232 -63 -56 -76 -64 -106
-61 l-34 3 123 140 c119 135 140 165 111 165 -19 0 -123 -76 -243 -178 -132
-111 -180 -142 -221 -142 -30 0 -33 3 -33 29 0 16 4 41 10 55 8 22 2 20 -58
-24 -37 -27 -79 -52 -94 -55 -80 -20 -118 46 -82 139 5 12 -17 0 -62 -34 -38
-29 -113 -74 -167 -100 -96 -47 -101 -50 -282 -238 -204 -210 -272 -263 -346
-270 -44 -4 -49 -2 -60 21 -17 38 -5 69 52 131 62 68 185 152 335 229 80 40
119 67 140 94 15 20 61 74 101 121 40 46 73 85 73 88 0 2 -38 -25 -85 -61
-122 -93 -183 -126 -225 -123 -31 3 -35 6 -38 35 -5 52 25 99 104 164 78 64
102 95 86 111 -19 19 -63 -7 -231 -136 -175 -135 -240 -176 -280 -176 -18 0
-21 6 -21 40 0 54 25 100 103 190 36 41 65 75 64 76 -1 1 -16 4 -34 7 -28 5
-41 -1 -108 -55 -42 -33 -78 -58 -81 -56 -2 3 32 33 76 68 53 42 80 70 80 83
0 39 57 76 74 48z m2436 -81 c0 -6 -56 -79 -125 -162 -69 -83 -123 -153 -121
-156 7 -7 149 72 219 122 34 24 89 68 122 97 70 61 149 99 222 106 59 6 83 -6
83 -42 0 -49 -95 -100 -210 -113 -61 -7 -66 -9 -97 -50 -42 -55 -45 -99 -7
-108 73 -19 199 42 338 161 116 99 203 146 283 153 46 4 59 2 70 -14 19 -25
16 -63 -7 -107 -25 -46 -25 -47 1 -47 28 0 55 16 119 70 30 26 73 59 95 74 41
27 89 34 100 15 13 -20 -6 -77 -40 -122 -19 -25 -35 -48 -35 -51 0 -4 37 23
83 59 95 76 186 125 233 125 38 0 47 -17 38 -69 -5 -29 -26 -55 -102 -128 -70
-68 -93 -96 -88 -108 15 -41 103 6 246 129 85 74 110 81 30 9 -123 -111 -211
-167 -257 -161 -76 9 -52 89 63 204 46 46 84 91 84 99 0 57 -193 -59 -387
-232 -63 -56 -76 -64 -106 -61 l-34 3 123 140 c119 135 139 165 111 165 -16 0
-110 -65 -178 -122 -34 -28 -60 -41 -91 -45 -32 -5 -56 -18 -98 -54 -115 -99
-219 -126 -263 -67 -18 24 -19 33 -10 72 l10 44 -71 -54 c-83 -63 -157 -94
-226 -94 -71 0 -99 38 -87 116 3 18 4 34 1 34 -2 0 -31 -20 -63 -44 -33 -24
-106 -67 -163 -96 -56 -30 -112 -65 -123 -79 -104 -133 -303 -351 -359 -392
-62 -46 -136 -34 -136 22 0 87 156 223 427 370 27 14 306 369 298 377 -6 6
-62 -27 -114 -68 -29 -23 -55 -39 -58 -37 -9 9 111 97 152 111 48 17 105 20
105 6z"/>
<path d="M1373 1148 c-75 -41 -184 -157 -212 -226 -15 -36 -3 -62 28 -62 50 0
205 124 261 208 58 87 16 131 -77 80z"/>
<path d="M585 708 c-144 -81 -247 -152 -303 -212 -43 -45 -52 -61 -52 -90 0
-29 4 -37 24 -42 35 -8 102 25 164 81 71 64 283 316 266 314 -5 0 -49 -23 -99
-51z"/>
<path d="M3135 1156 c-43 -19 -135 -94 -135 -110 0 -10 12 -11 53 -5 89 12
173 65 165 106 -4 23 -43 27 -83 9z"/>
<path d="M3515 1156 c-59 -26 -192 -164 -233 -243 -15 -27 7 -53 44 -53 68 0
226 126 273 217 25 50 26 57 5 77 -19 19 -49 20 -89 2z"/>
<path d="M2327 692 c-204 -123 -281 -202 -275 -278 2 -32 7 -40 26 -42 35 -5
105 42 166 111 84 95 227 288 214 287 -2 0 -61 -35 -131 -78z"/>
</g>
</svg>
