<?xml version="1.0" standalone="no"?>
<!DOCTYPE svg PUBLIC "-//W3C//DTD SVG 20010904//EN"
 "http://www.w3.org/TR/2001/REC-SVG-20010904/DTD/svg10.dtd">
<svg version="1.0" xmlns="http://www.w3.org/2000/svg"
 width="300.000000pt" height="167.000000pt" viewBox="0 0 300.000000 167.000000"
 preserveAspectRatio="xMidYMid meet">
<metadata>
Created by potrace 1.10, written by Peter Selinger 2001-2011
</metadata>
<g transform="translate(0.000000,167.000000) scale(0.100000,-0.100000)"
fill="#ffffff" stroke="none">
<path d="M1826 1024 c-17 -16 -13 -34 7 -34 15 0 38 35 30 44 -10 10 -21 7
-37 -10z"/>
<path d="M629 942 c11 -8 7 -22 -22 -73 -20 -35 -46 -79 -58 -96 -21 -33 -21
-33 -1 -33 11 0 31 14 44 31 21 28 56 65 140 147 15 14 25 28 23 30 -11 11
-46 -13 -69 -48 -14 -22 -27 -40 -29 -40 -1 0 -2 19 -2 42 0 35 -4 43 -20 46
-15 2 -17 1 -6 -6z"/>
<path d="M786 897 c-19 -29 -40 -58 -48 -65 -15 -12 -13 -68 3 -77 4 -3 18 13
29 35 12 23 37 65 56 95 40 63 40 65 14 65 -13 0 -32 -18 -54 -53z"/>
<path d="M897 883 c-24 -38 -56 -94 -72 -125 -16 -32 -33 -58 -37 -58 -4 0 -8
-6 -8 -14 0 -21 -94 -159 -121 -178 -13 -9 -19 -17 -12 -17 17 -1 120 96 155
146 16 24 50 83 75 131 24 47 52 97 62 111 10 14 23 36 30 49 10 19 9 22 -9
22 -14 0 -33 -20 -63 -67z"/>
<path d="M1111 939 c-40 -16 -78 -47 -123 -102 -23 -28 -35 -46 -26 -39 14 11
17 9 23 -17 8 -38 25 -50 25 -19 0 51 101 172 150 181 l25 4 -25 1 c-14 0 -36
-4 -49 -9z"/>
<path d="M1187 928 c-61 -100 -83 -131 -118 -162 -21 -20 -36 -36 -32 -36 4 0
24 17 45 37 l38 37 0 -26 c0 -50 18 -38 53 35 20 39 45 87 57 105 l22 32 -26
0 c-16 0 -31 -9 -39 -22z"/>
<path d="M1483 943 c24 -6 21 -21 -18 -83 -20 -30 -35 -67 -35 -84 0 -29 0
-29 20 -11 28 25 80 118 80 142 0 25 -19 43 -44 42 -17 -1 -18 -2 -3 -6z"/>
<path d="M1773 938 c-6 -7 -38 -63 -72 -124 -34 -61 -71 -116 -84 -123 -13 -7
-15 -10 -4 -6 17 4 17 1 -4 -33 -38 -63 -90 -131 -112 -148 -12 -9 -15 -14 -7
-12 20 6 125 99 139 123 7 11 18 30 25 43 7 13 23 34 34 47 11 13 19 25 17 27
-4 4 20 49 73 136 23 39 42 73 42 76 0 11 -38 6 -47 -6z"/>
<path d="M1933 929 c-23 -11 -67 -50 -99 -87 -32 -37 -46 -56 -31 -43 26 24
27 24 27 4 0 -28 10 -53 21 -53 5 0 9 12 9 26 0 35 17 64 38 64 13 0 14 2 4 8
-9 6 1 21 37 55 56 52 55 56 -6 26z"/>
<path d="M2016 937 c5 -15 -27 -47 -71 -70 -16 -9 -24 -16 -17 -17 22 0 76 27
96 48 18 21 16 52 -3 52 -6 0 -8 -6 -5 -13z"/>
<path d="M2358 942 c17 -11 9 -30 -50 -124 -38 -62 -45 -78 -31 -77 20 0 50
32 89 93 37 57 35 116 -4 116 -13 0 -14 -2 -4 -8z"/>
<path d="M2463 943 c4 -3 10 -3 14 0 3 4 0 7 -7 7 -7 0 -10 -3 -7 -7z"/>
<path d="M1370 916 c-5 -13 -29 -57 -55 -97 -36 -58 -42 -75 -30 -77 22 -5 37
9 79 77 21 35 36 72 36 90 0 37 -17 41 -30 7z"/>
<path d="M2072 885 c-51 -47 -59 -59 -54 -82 6 -34 39 -73 61 -72 10 0 8 4 -6
9 -13 5 -23 17 -23 27 0 28 38 94 78 136 58 60 13 46 -56 -18z"/>
<path d="M2462 867 c-42 -72 -50 -101 -32 -112 14 -8 76 92 84 137 11 59 -7
51 -52 -25z"/>
<path d="M1324 918 c-4 -7 -3 -8 4 -4 7 4 12 9 12 12 0 8 -9 4 -16 -8z"/>
<path d="M1414 898 c-4 -7 -3 -8 4 -4 12 7 16 16 8 16 -3 0 -8 -5 -12 -12z"/>
<path d="M2200 892 c-24 -9 -40 -35 -38 -64 2 -15 -6 -37 -17 -50 l-20 -23 26
23 c26 22 76 109 68 116 -2 2 -11 1 -19 -2z"/>
<path d="M1289 873 c-29 -35 -41 -53 -36 -53 2 0 17 16 31 35 28 36 31 49 5
18z"/>
<path d="M1989 793 c-13 -16 -12 -17 4 -4 16 13 21 21 13 21 -2 0 -10 -8 -17
-17z"/>
<path d="M2203 803 c4 -3 10 -3 14 0 3 4 0 7 -7 7 -7 0 -10 -3 -7 -7z"/>
<path d="M1224 788 c-4 -7 -3 -8 4 -4 12 7 16 16 8 16 -3 0 -8 -5 -12 -12z"/>
<path d="M894 748 c-4 -7 -3 -8 4 -4 7 4 12 9 12 12 0 8 -9 4 -16 -8z"/>
<path d="M1153 733 c4 -3 10 -3 14 0 3 4 0 7 -7 7 -7 0 -10 -3 -7 -7z"/>
<path d="M1463 733 c4 -3 10 -3 14 0 3 4 0 7 -7 7 -7 0 -10 -3 -7 -7z"/>
<path d="M1893 733 c4 -3 10 -3 14 0 3 4 0 7 -7 7 -7 0 -10 -3 -7 -7z"/>
<path d="M2453 733 c4 -3 10 -3 14 0 3 4 0 7 -7 7 -7 0 -10 -3 -7 -7z"/>
<path d="M1545 658 c-53 -28 -113 -75 -126 -100 -6 -12 5 -4 25 16 21 20 62
50 92 67 30 17 54 33 54 35 0 6 -1 5 -45 -18z"/>
<path d="M644 622 c-21 -16 -46 -37 -54 -48 -8 -10 1 -5 20 11 20 17 47 38 60
47 14 9 22 17 19 17 -3 1 -24 -12 -45 -27z"/>
<path d="M1428 488 c6 -6 18 -8 28 -6 14 3 12 5 -9 10 -19 3 -25 2 -19 -4z"/>
</g>
</svg>
